<?xml version="1.0" standalone="no"?>
<!DOCTYPE svg PUBLIC "-//W3C//DTD SVG 20010904//EN"
 "http://www.w3.org/TR/2001/REC-SVG-20010904/DTD/svg10.dtd">
<svg version="1.0" xmlns="http://www.w3.org/2000/svg"
 width="512.000000pt" height="512.000000pt" viewBox="0 0 512.000000 512.000000"
 preserveAspectRatio="xMidYMid meet">
<metadata>
Created by potrace 1.11, written by Peter Selinger 2001-2013
</metadata>
<g transform="translate(0.000000,512.000000) scale(0.100000,-0.100000)"
fill="#000000" stroke="none">
<path d="M85 5097 c-22 -13 -49 -40 -62 -62 l-23 -40 0 -2435 0 -2435 23 -40
c13 -22 40 -49 62 -62 l40 -23 2435 0 2435 0 40 23 c22 13 49 40 62 62 l23 40
0 2435 0 2435 -23 40 c-13 22 -40 49 -62 62 l-40 23 -2435 0 -2435 0 -40 -23z
m3172 -1738 c91 -12 236 -58 299 -95 95 -56 123 -129 82 -212 -44 -90 -127
-108 -236 -53 -92 47 -179 64 -294 59 -114 -6 -198 -39 -223 -88 -22 -43 -19
-101 8 -141 32 -48 99 -82 280 -140 87 -28 195 -69 240 -92 101 -50 186 -131
225 -214 25 -53 27 -68 27 -178 0 -116 -1 -123 -33 -187 -57 -117 -165 -198
-320 -240 -108 -29 -296 -29 -404 0 -148 40 -309 138 -366 222 -20 29 -23 44
-20 93 4 51 9 63 40 94 27 27 46 36 81 40 63 7 87 0 143 -48 95 -79 205 -119
328 -119 143 0 243 49 253 126 12 93 -38 130 -285 211 -212 68 -299 111 -379
186 -180 168 -189 452 -20 621 128 128 345 187 574 155z m-980 -25 c15 -11 38
-36 51 -54 l22 -33 0 -531 c0 -433 -3 -543 -15 -594 -51 -216 -210 -342 -433
-342 -152 0 -288 70 -400 206 -40 49 -46 62 -49 112 -5 67 17 110 69 142 71
43 144 22 218 -61 61 -70 98 -89 172 -89 61 0 90 16 116 63 15 29 17 76 20
465 l3 432 -224 0 c-214 0 -226 1 -267 23 -117 62 -100 238 26 277 16 5 172 8
346 7 304 -2 318 -3 345 -23z"/>
</g>
</svg>
